# xmcd
#
# Track frame offsets: 
#        150
#        19425
#        42542
#        61610
#        85117
#        110677
#        129740
#        152902
#        171927
#        195552
#
# Disc length: 2926 seconds
#
# Revision: 0
# Processed by: cddbd v1.5.2PL0 Copyright (c) Steve Scherf et al.
# Submitted via: ExactAudioCopyFreeDBPlugin 1.0
#
DISCID=870b6c0a
DTITLE=Ebiet G.Ade - Gamelan
DYEAR=1998
DGENRE=Country
TTITLE0=Lagu Untuk Sebuah Nama
TTITLE1=Kalian Dengarkah Keluhanku?
TTITLE2=Camelia II
TTITLE3=Dosa Siapa, Ini Dosa Siapa
TTITLE4=Untuk Kita Renungkan
TTITLE5=Lagu Untuk Sebuah Nama (feat. Henri Lamiri)
TTITLE6=Kalian Dengarkah Keluhanku? (feat. Deni TR)
TTITLE7=Camelia II (feat. Embong Rahardjo)
TTITLE8=Dosa Siapa, Ini Dosa Siapa (feat. Henri Lamiri)
TTITLE9=Untuk Kita Renungkan (feat. Embong Rahardjo)
EXTD=
EXTT0=
EXTT1=
EXTT2=
EXTT3=
EXTT4=
EXTT5=
EXTT6=
EXTT7=
EXTT8=
EXTT9=
PLAYORDER=
